<svg width="25" height="20" viewBox="0 0 25 20" fill="none" xmlns="http://www.w3.org/2000/svg">
<g clip-path="url(#clip0_916_120)">
<path d="M2.49383 15.245L2.555 4.40947H1.33175V18.1966C3.01273 17.7625 4.69962 17.4863 6.39834 17.4745C7.96685 17.4646 9.53536 17.6836 11.1078 18.2163C10.1312 17.4252 9.04212 16.8431 7.88004 16.4643C6.4161 15.9869 4.83378 15.829 3.212 15.9671C2.84502 15.9967 2.5254 15.7245 2.49383 15.3595C2.48989 15.32 2.48989 15.2825 2.49383 15.245ZM20.4439 3.84323C20.44 3.81166 20.436 3.77812 20.436 3.74261C20.436 3.70907 20.438 3.67553 20.4439 3.64199V1.44805C18.905 1.30205 17.3187 1.47172 15.9337 1.99653C14.6394 2.4878 13.5227 3.29475 12.7967 4.45091V16.9477C13.9252 16.194 15.0794 15.5745 16.2652 15.1523C17.6167 14.6709 19.0056 14.442 20.4439 14.5565V3.84323ZM21.7757 3.07772H23.579C23.9459 3.07772 24.2439 3.37564 24.2439 3.74261V19.0647C24.2439 19.4317 23.9459 19.7296 23.579 19.7296C23.504 19.7296 23.431 19.7177 23.3639 19.6941C21.5093 19.1633 19.6666 18.8102 17.8416 18.7983C16.062 18.7865 14.2843 19.1002 12.4988 19.8874C12.3883 19.9604 12.2561 19.9999 12.12 19.9979C11.9858 19.9999 11.8536 19.9604 11.7411 19.8874C9.95758 19.0982 8.17796 18.7865 6.39834 18.7983C4.57335 18.8102 2.73256 19.1633 0.875999 19.6941C0.808918 19.7177 0.735918 19.7296 0.660945 19.7296C0.297918 19.7316 0 19.4336 0 19.0667V3.74261C0 3.37564 0.297918 3.07772 0.664891 3.07772H2.56092L2.57275 0.856155C2.57473 0.536534 2.79964 0.272156 3.10151 0.209021C4.85153 -0.155979 6.9784 -0.0652223 8.84285 0.648993C10.1312 1.14224 11.3012 1.92945 12.1555 3.06588C13.0177 2.0064 14.1699 1.24483 15.4661 0.75356C17.2378 0.0807775 19.2818 -0.081006 21.2055 0.201129C21.5369 0.24848 21.7737 0.534561 21.7737 0.858128V3.07772H21.7757ZM13.4418 18.1157C14.9117 17.654 16.3796 17.4646 17.8475 17.4725C19.5462 17.4824 21.2331 17.7606 22.9141 18.1946V4.40947H21.7757V15.3042C21.7757 15.6712 21.4778 15.9691 21.1108 15.9691C21.0575 15.9691 21.0062 15.9632 20.9569 15.9513C19.5008 15.7225 18.0902 15.9119 16.713 16.4032C15.6042 16.7997 14.5151 17.3916 13.4418 18.1157ZM11.4669 16.8195V4.43118C10.7704 3.20202 9.64388 2.37929 8.37131 1.89196C6.92907 1.33953 5.30926 1.21524 3.89662 1.41648L3.82164 14.5979C5.36253 14.5426 6.86988 14.738 8.28845 15.2016C9.41699 15.5686 10.4863 16.1072 11.4669 16.8195Z" fill="white"/>
</g>
<defs>
<clipPath id="clip0_916_120">
<rect width="24.2439" height="20" fill="white"/>
</clipPath>
</defs>
</svg>
